<svg width="240" height="240" viewBox="0 0 240 240" fill="none" xmlns="http://www.w3.org/2000/svg">
    <path d="M47.44 158.71C43.12 155.84 37.63 149.83 37.5 145.57C37.8462 145.624 38.1776 145.748 38.4735 145.936C38.7695 146.123 39.0236 146.37 39.22 146.66C39.22 146.66 48.89 159.35 44.22 148.85C42.02 143.9 39.22 138.95 37.73 134.1C35 125.21 42 124.94 47 135.28C47.66 136.64 51.74 147.41 53.94 146.93C54.0722 146.882 54.1896 146.801 54.2808 146.694C54.3719 146.587 54.4337 146.458 54.46 146.32C55.12 144.46 54.59 141.32 56.72 141.19C58.59 141.08 61.16 143.54 62.84 145.8C66.22 150.4 68.26 157.16 64.59 159.21C60.92 161.26 53.16 162.49 47.52 158.74L47.44 158.71Z"
          fill="url(#paint0_linear_2290_579679)"/>
    <path d="M203.58 119.61C203.58 119.61 190.26 135.1 190.7 149.42H195C195 149.42 196.56 132.15 203.58 119.61ZM214.26 98.8999C211.31 102.6 209.42 107.84 211.18 112.53C212.41 115.76 216.09 115.78 215.83 120.27C215.58 122.513 214.81 124.667 213.58 126.56C211.493 130.212 208.934 133.574 205.97 136.56C207.183 137.503 208.127 138.75 208.706 140.173C209.285 141.597 209.48 143.147 209.27 144.67C208.781 147.749 207.32 150.591 205.1 152.78C204.448 153.578 203.596 154.189 202.63 154.55C201.693 154.77 200.717 154.77 199.78 154.55C195.183 153.772 190.718 152.348 186.52 150.32C183.9 149.08 181.22 147.38 180.33 144.66C179.33 141.55 180.94 140.56 182.71 139.58L183.16 139.33C184.099 138.895 184.912 138.227 185.52 137.39C186.81 135.26 186.85 132.39 187.31 130.06C187.98 126.57 186.99 120.21 191.36 118.84C193.06 118.31 194.9 118.43 196.59 117.89C200.27 116.72 201.8 113.27 203.27 109.77L203.54 109.14C204.259 107.167 205.271 105.313 206.54 103.64C208.43 101.46 213 100.4 214.26 98.8999Z"
          fill="url(#paint1_linear_2290_579679)"/>
    <path d="M237.5 189.72C221.5 165.72 193.07 137.77 120 143.72C28.74 151.15 8.08 178.72 3.65 188.07C2.93837 188.969 2.53515 190.073 2.5 191.22C2.5 203.65 55.11 213.72 120 213.72C184.89 213.72 237.5 203.65 237.5 191.22C237.493 190.708 237.402 190.201 237.23 189.72H237.5Z"
          fill="url(#paint2_linear_2290_579679)"/>
    <path d="M43.91 98.0996C45.09 93.7396 49.75 80.5196 61.2 88.5796C61.2 88.5796 67.61 67.3896 86.87 84.0496C86.87 84.0496 96.65 77.9096 101.47 90.0496C101.47 90.0496 107.47 92.5596 106.47 97.5996L44.92 99.3196C44.7671 99.3249 44.615 99.295 44.4755 99.2323C44.3359 99.1696 44.2126 99.0757 44.1151 98.9579C44.0175 98.84 43.9483 98.7014 43.9128 98.5526C43.8772 98.4038 43.8763 98.2488 43.91 98.0996Z"
          fill="url(#paint3_linear_2290_579679)"/>
    <path d="M144.68 41.0999C144.68 41.0999 147.77 32.4599 152.91 35.7499C152.91 35.7499 158.81 24.7499 169.64 32.8699C169.64 32.8699 174.75 31.3999 177.46 37.3599C177.46 37.3599 180.13 36.9099 181.19 38.8999L144.68 41.0999Z"
          fill="url(#paint4_linear_2290_579679)"/>
    <path d="M212.55 92.2998C215.311 92.2998 217.55 90.0612 217.55 87.2998C217.55 84.5384 215.311 82.2998 212.55 82.2998C209.789 82.2998 207.55 84.5384 207.55 87.2998C207.55 90.0612 209.789 92.2998 212.55 92.2998Z"
          stroke="#F2F6FA" stroke-miterlimit="10"/>
    <path d="M55 60.57L62.07 53.5" stroke="#F2F6FA" stroke-width="2" stroke-linecap="round" stroke-linejoin="round"/>
    <path d="M62.07 60.57L55 53.5" stroke="#F2F6FA" stroke-width="2" stroke-linecap="round" stroke-linejoin="round"/>
    <path d="M28.8799 163.14C28.8799 163.14 18.4099 152.82 24.2999 154.45C30.1899 156.08 32.8099 162.6 32.8099 162.6C32.8099 162.6 30.1899 151.19 36.0899 151.74C41.9899 152.29 37.3999 162.06 37.3999 162.06C37.3999 162.06 34.1199 170.2 28.8799 163.14Z"
          fill="#F2F2F2"/>
    <path d="M208 158.72C208 158.72 212 144.72 214 144.72C216 144.72 219 158.72 219 158.72C219 158.72 215 163.72 208 158.72Z"
          fill="#DFDFDF"/>
    <path d="M214.5 158.72C214.5 158.167 214.052 157.72 213.5 157.72C212.948 157.72 212.5 158.167 212.5 158.72V166.72C212.5 167.272 212.948 167.72 213.5 167.72C214.052 167.72 214.5 167.272 214.5 166.72V158.72Z"
          fill="#DFDFDF"/>
    <path d="M217.39 172.63C217.39 172.63 219.65 164.72 220.78 164.72C221.91 164.72 223.61 172.63 223.61 172.63C223.61 172.63 221.35 175.46 217.39 172.63Z"
          fill="#DFDFDF"/>
    <path d="M221.06 172.64C221.06 172.325 220.807 172.07 220.495 172.07C220.183 172.07 219.93 172.325 219.93 172.64V177.15C219.93 177.465 220.183 177.72 220.495 177.72C220.807 177.72 221.06 177.465 221.06 177.15V172.64Z"
          fill="#DFDFDF"/>
    <path d="M208 26.2798C209 34.4598 200.06 39.0098 198.26 34.3398C196.46 29.6698 206.26 30.1598 204.36 36.2698C202.46 42.3798 194.7 38.9998 194.7 38.9998"
          stroke="#F2F2F2" stroke-miterlimit="10"/>
    <path d="M194.177 178.286C194.765 167.466 168.082 157.219 134.581 155.399C101.079 153.579 73.4435 160.874 72.8556 171.694C72.2677 182.514 98.9498 192.761 132.452 194.581C165.954 196.401 193.589 189.106 194.177 178.286Z"
          fill="url(#paint5_linear_2290_579679)"/>
    <path d="M98.5041 191.674C98.6039 189.838 91.8627 187.979 83.4472 187.521C75.0318 187.064 68.1288 188.182 68.0291 190.019C67.9293 191.855 74.6705 193.714 83.0859 194.172C91.5014 194.629 98.4043 193.511 98.5041 191.674Z"
          fill="url(#paint6_linear_2290_579679)"/>
    <path d="M180.57 142C180.01 142.53 179.43 143.05 178.85 143.55C179.495 143.119 180.075 142.597 180.57 142V142Z"
          fill="url(#paint7_linear_2290_579679)"/>
    <path d="M161.37 59.73H85.4C83.1577 59.73 81.34 61.5477 81.34 63.79V159.28C81.34 161.522 83.1577 163.34 85.4 163.34H161.37C163.612 163.34 165.43 161.522 165.43 159.28V63.79C165.43 61.5477 163.612 59.73 161.37 59.73Z"
          fill="url(#paint8_linear_2290_579679)"/>
    <path opacity="0.76"
          d="M156.14 68.9897H90.64C88.7567 68.9897 87.23 70.5165 87.23 72.3997V150.69C87.23 152.573 88.7567 154.1 90.64 154.1H156.14C158.023 154.1 159.55 152.573 159.55 150.69V72.3997C159.55 70.5165 158.023 68.9897 156.14 68.9897Z"
          fill="white"/>
    <path fill-rule="evenodd" clip-rule="evenodd"
          d="M136.77 53.3297H131.77C131.866 52.9233 131.916 52.5074 131.92 52.0897C131.92 49.6797 130.46 47.7197 128.68 47.7197H118.05C116.27 47.7197 114.82 49.7197 114.82 52.0897C114.824 52.5074 114.874 52.9233 114.97 53.3297H109.97C108.03 53.3297 106.44 55.4697 106.44 58.0897C106.44 60.7097 108.03 62.8597 109.97 62.8597H136.73C138.67 62.8597 140.26 60.7197 140.26 58.0897C140.26 55.4597 138.71 53.3297 136.77 53.3297Z"
          fill="url(#paint9_linear_2290_579679)"/>
    <path d="M148.35 82.2598H96.55C95.0975 82.2598 93.92 83.4373 93.92 84.8898C93.92 86.3423 95.0975 87.5198 96.55 87.5198H148.35C149.803 87.5198 150.98 86.3423 150.98 84.8898C150.98 83.4373 149.803 82.2598 148.35 82.2598Z"
          fill="url(#paint10_linear_2290_579679)"/>
    <path d="M120.48 94.27H95.77C94.7483 94.27 93.92 95.0983 93.92 96.12V97.68C93.92 98.7017 94.7483 99.53 95.77 99.53H120.48C121.502 99.53 122.33 98.7017 122.33 97.68V96.12C122.33 95.0983 121.502 94.27 120.48 94.27Z"
          fill="url(#paint11_linear_2290_579679)"/>
    <path d="M148.35 113.23H96.55C95.0975 113.23 93.92 114.407 93.92 115.86C93.92 117.312 95.0975 118.49 96.55 118.49H148.35C149.803 118.49 150.98 117.312 150.98 115.86C150.98 114.407 149.803 113.23 148.35 113.23Z"
          fill="url(#paint12_linear_2290_579679)"/>
    <path d="M120.48 123.55H95.77C94.7483 123.55 93.92 124.378 93.92 125.4V126.96C93.92 127.982 94.7483 128.81 95.77 128.81H120.48C121.502 128.81 122.33 127.982 122.33 126.96V125.4C122.33 124.378 121.502 123.55 120.48 123.55Z"
          fill="url(#paint13_linear_2290_579679)"/>
    <path d="M185.34 169.982L176.777 163.718C175.837 163.029 174.517 163.234 173.829 164.175C173.141 165.115 173.345 166.435 174.286 167.123L182.849 173.388C183.789 174.076 185.109 173.872 185.797 172.931C186.486 171.991 186.281 170.67 185.34 169.982Z"
          fill="#B3B3B3"/>
    <path d="M160.37 171.78C169.588 171.78 177.06 164.308 177.06 155.09C177.06 145.872 169.588 138.4 160.37 138.4C151.152 138.4 143.68 145.872 143.68 155.09C143.68 164.308 151.152 171.78 160.37 171.78Z"
          fill="url(#paint14_linear_2290_579679)" stroke="#CCCCCC" stroke-width="3" stroke-miterlimit="10"/>
    <path d="M168.84 155C168.84 155 168.06 163.27 160.53 162.13" stroke="white" stroke-width="3" stroke-linecap="round"
          stroke-linejoin="round"/>
    <path d="M68.79 123.44C68.8487 123.682 68.9431 123.915 69.07 124.13C69.8712 125.412 70.7813 126.623 71.79 127.75L73.26 124.44C73.26 124.44 73.02 123.44 72.61 121.91C71.231 122.101 69.9196 122.626 68.79 123.44V123.44Z"
          fill="#FEF2E3"/>
    <path d="M77.22 120.57C77.22 120.57 69 124.1 68.75 124C66.7453 120.874 65.5748 117.287 65.35 113.58C65.35 111.26 67.75 108.47 70.44 109.02C71.79 109.3 71.77 109.68 73.77 112.59C75.2628 115.088 76.4227 117.771 77.22 120.57V120.57Z"
          fill="url(#paint15_linear_2290_579679)"/>
    <path d="M84.22 183.91L84 187.14C83.93 187.55 83.64 188.56 83.64 188.93C83.64 190.33 90.28 187.75 88.79 187.13C88.66 187.07 87.95 186.65 87.91 186.13C87.84 185.4 87.67 183.92 87.67 183.92L84.22 183.91Z"
          fill="#FEF2E3"/>
    <path d="M88.7999 187.11C88.7999 187.11 87.2499 187.54 86.4499 187.65C85.6499 187.76 84.5999 186.86 84.0399 187.1C83.4799 187.34 83.4399 189.77 83.4399 189.77C83.4399 189.77 91.7899 190.46 94.1399 189.77C95.0699 189.47 91.9999 188.11 88.7999 187.11Z"
          fill="#45487A"/>
    <path d="M70.65 183.91L70.46 187.14C70.3055 187.729 70.1853 188.327 70.1 188.93C70.1 190.33 76.74 187.75 75.25 187.13C75.11 187.07 74.25 186.33 74.16 185.86C74.09 185.12 74.16 183.96 74.16 183.96L70.65 183.91Z"
          fill="#FEF2E3"/>
    <path d="M75.2299 187.11C75.2299 187.11 73.6799 187.54 72.8799 187.65C72.0799 187.76 71.0299 186.86 70.4599 187.1C69.8899 187.34 69.8199 189.77 69.8199 189.77C69.8199 189.77 78.2099 190.57 80.5699 189.77C81.4799 189.43 78.42 188.11 75.2299 187.11Z"
          fill="#45487A"/>
    <path d="M72.6801 125.23L78.5201 117C78.5201 116.93 78.6001 116.78 78.6801 116.56C78.9701 115.75 79.5901 114.06 80.1201 112.38C80.2801 111.79 80.6401 110.77 80.9801 109.77C81.3201 108.77 81.8401 107.3 81.8601 107.07C81.8276 107.002 81.8008 106.932 81.7801 106.86C81.5181 106.059 81.3143 105.24 81.1701 104.41C81.1001 104.04 81.0401 103.15 81.4801 103.15C82.1601 103.15 81.8301 104.04 82.1501 104.6C82.3508 103.991 82.5111 103.37 82.6301 102.74L82.7401 101C82.7401 100.87 82.6201 99.9097 83.1001 99.9097C83.5301 99.9097 83.5201 100.91 83.7001 102.69C83.7501 102.49 83.8101 102.25 83.8501 102.03C83.8825 101.724 83.9326 101.42 84.0001 101.12C83.9101 100.64 84.0001 99.8797 84.4801 99.9497C84.7301 99.9497 84.7101 101.05 84.7101 101.05C84.7101 101.05 84.7101 102.31 84.7101 102.53C84.7601 102.16 84.9701 100.53 85.3701 100.53C85.7701 100.53 85.7301 100.97 85.7201 101.31C85.7101 101.65 85.5101 103.24 85.5001 103.45C85.6601 103.18 85.8401 101.65 86.0001 101.65C86.6501 101.65 86.4101 103.83 86.1701 104.39C86.1701 104.45 86.1701 104.57 86.1001 104.7C86.001 105.266 85.8119 105.813 85.5401 106.32C85.1401 107.01 84.5401 108.12 84.5401 108.32C84.4701 108.67 84.2801 109.92 84.0301 111.49C83.9301 112.16 83.8101 112.89 83.6901 113.65C83.6901 113.82 83.55 114.34 83.09 116.31C82.9127 117.279 82.6688 118.234 82.3601 119.17C82.0901 119.66 75.7901 128.17 75.5201 128.58L75.3601 128.79L72.6801 125.23Z"
          fill="#FEF2E3"/>
    <path d="M83.55 106.14C83.55 106.14 83.07 104.92 82.23 104.92C82.3768 104.876 82.5316 104.867 82.6824 104.893C82.8333 104.919 82.9761 104.98 83.1 105.07C83.3731 105.361 83.5327 105.741 83.55 106.14Z"
          fill="#FEF2E3"/>
    <path d="M71.27 103.79L70.51 108.55C70.51 108.55 73.38 110.85 75.05 110.37C76.45 109.96 75.49 108.13 75.49 108.13C75.1093 106.876 74.9337 105.569 74.97 104.26C75.2 102.93 71.27 103.79 71.27 103.79Z"
          fill="#FEF2E3"/>
    <path d="M71.81 105.23C72.8414 105.687 73.9321 105.997 75.05 106.15C74.9265 105.528 74.8995 104.89 74.97 104.26C75.08 103.64 74.3 103.5 73.43 103.52C72.28 103.62 71.27 103.79 71.27 103.79L71.12 104.71C71.3154 104.925 71.5495 105.101 71.81 105.23V105.23Z"
          fill="#FEF2E3"/>
    <path d="M67.65 98.3098C67.53 98.3098 68.78 103.62 70.72 104.54C72.66 105.46 75.54 104.97 76.09 103.54C76.68 101.96 74.5 96.5398 71.77 95.8498C69.04 95.1598 67.65 98.3098 67.65 98.3098Z"
          fill="#FEF2E3"/>
    <path d="M69.89 93.4197C68.7909 94.0556 67.9198 95.0212 67.4 96.1797C66.67 96.5297 65.79 97.2697 65.4 99.2797C65.2181 100.366 65.4557 101.48 66.0647 102.397C66.6738 103.314 67.6086 103.966 68.68 104.22C69.1834 104.313 69.6545 104.535 70.0484 104.862C70.4422 105.189 70.7457 105.612 70.93 106.09L71.16 104.7C70.8966 104.023 70.5024 103.404 70 102.88C69.34 102.27 70.31 101.39 70.39 100.67C70.46 100.11 70.05 99.0297 70.14 98.1197C70.6824 97.2743 71.4197 96.5713 72.29 96.0697C74.16 95.3797 71.88 92.2797 69.89 93.4197Z"
          fill="#2E2E5F"/>
    <path d="M70.7099 101.59C70.9699 102.21 70.8599 102.82 70.4799 102.95C70.0999 103.08 69.5899 102.71 69.3399 102.09C69.0899 101.47 69.1899 100.87 69.5699 100.73C69.9499 100.59 70.4599 101 70.7099 101.59Z"
          fill="#FEF2E3"/>
    <path d="M77.9301 125.36L89.2001 123.52C89.2001 123.52 87.9101 120.29 87.4601 120.29C87.0101 120.29 78.9301 123.81 78.9301 123.81L78.2901 125.1L77.9301 125.36Z"
          fill="#F8A492"/>
    <path d="M72.15 133.09C71.5184 136.231 71.2965 139.441 71.49 142.64C71.95 146.77 71.98 161.41 71.98 161.41L70.23 184.83L74.38 184.92C74.38 184.92 79.3 161.51 79.21 162.11C79.12 162.71 80.86 145.62 80.86 145.62L75 132.57L72.15 133.09Z"
          fill="#8FADED"/>
    <path d="M73.2501 132.83C73.2501 132.83 72.5201 137.72 73.4401 139.83C74.3601 141.94 81.3001 163.04 81.4401 164.76C81.5801 166.48 83.84 185.45 83.84 185.45L88.6601 185.32L89.6601 164.22L87.4701 137.69L85.35 131L73.2501 132.83Z"
          fill="#8FADED"/>
    <path d="M70.51 108.55C71.1965 108.992 71.9937 109.231 72.81 109.24C73.7658 109.044 74.6754 108.667 75.49 108.13L75.27 107.39C75.27 107.39 72.4 107 72.33 107L70.51 108.55Z"
          fill="#FEF2E3"/>
    <path d="M83.1899 120.13C83.1899 120.13 87.4599 124.13 89.3799 123.47C91.2999 122.81 92.0999 120.47 87.3799 117C83.1999 113.93 83.1899 120.13 83.1899 120.13Z"
          fill="#FEF2E3"/>
    <path d="M86.08 125.1C85.45 121.66 80.86 110.93 80.49 108.96C80.31 107.96 77.84 107.96 75.49 108.1C73.14 108.24 70.49 108.55 70.49 108.55C69.3501 108.725 68.2657 109.159 67.32 109.82C66.32 110.73 66.09 113.25 67.49 118.02C68.59 121.79 69.95 123.85 70.63 126.6C70.76 127.52 70.88 128.43 71.04 129.49C71.28 133.59 71.04 139.01 71.04 139.01C71.04 139.01 83.04 141.5 87.54 137.72C87.55 137.72 86.73 128.63 86.08 125.1Z"
          fill="url(#paint16_linear_2290_579679)"/>
    <path d="M89.14 117.69C89.14 117.69 84.43 121.58 84.14 121.58C83.85 121.58 77.42 116.77 75.91 112.81C75.7288 112.315 75.6635 111.785 75.7191 111.26C75.7746 110.736 75.9496 110.232 76.2306 109.785C76.5116 109.339 76.8912 108.964 77.34 108.687C77.7889 108.41 78.2952 108.24 78.82 108.19C80.21 108.19 80.82 108.55 83.58 110.87C85.7099 112.903 87.5776 115.194 89.14 117.69V117.69Z"
          fill="url(#paint17_linear_2290_579679)"/>
    <defs>
        <linearGradient id="paint0_linear_2290_579679" x1="41.0616" y1="153.028" x2="56.4582" y2="138.835"
                        gradientUnits="userSpaceOnUse">
            <stop stop-color="#F2F6FA" stop-opacity="0"/>
            <stop offset="0.7" stop-color="#E6E6E6" stop-opacity="0.5"/>
        </linearGradient>
        <linearGradient id="paint1_linear_2290_579679" x1="6628.44" y1="7176.23" x2="7911.89" y2="7176.23"
                        gradientUnits="userSpaceOnUse">
            <stop stop-color="#F2F6FA" stop-opacity="0"/>
            <stop offset="0.7" stop-color="#E6E6E6" stop-opacity="0.5"/>
        </linearGradient>
        <linearGradient id="paint2_linear_2290_579679" x1="120" y1="296.25" x2="120" y2="61.2496"
                        gradientUnits="userSpaceOnUse">
            <stop stop-color="#F4F4F4" stop-opacity="0"/>
            <stop offset="0.69" stop-color="#DFDFDF" stop-opacity="0.7"/>
        </linearGradient>
        <linearGradient id="paint3_linear_2290_579679" x1="43.87" y1="88.4896" x2="106.61" y2="88.4896"
                        gradientUnits="userSpaceOnUse">
            <stop offset="0.14" stop-color="#E6E6E6" stop-opacity="0.5"/>
            <stop offset="1" stop-color="#F2F6FA" stop-opacity="0"/>
        </linearGradient>
        <linearGradient id="paint4_linear_2290_579679" x1="5426.95" y1="427.914" x2="6759.93" y2="427.914"
                        gradientUnits="userSpaceOnUse">
            <stop stop-color="#F2F6FA" stop-opacity="0"/>
            <stop offset="0.7" stop-color="#E6E6E6" stop-opacity="0.5"/>
        </linearGradient>
        <linearGradient id="paint5_linear_2290_579679" x1="166.389" y1="108.267" x2="106.236" y2="219.493"
                        gradientUnits="userSpaceOnUse">
            <stop stop-color="#CCCCCC" stop-opacity="0.6"/>
            <stop offset="1" stop-color="#DFDFDF" stop-opacity="0"/>
        </linearGradient>
        <linearGradient id="paint6_linear_2290_579679" x1="-655.921" y1="-6905.43" x2="-1007.71" y2="-6696.23"
                        gradientUnits="userSpaceOnUse">
            <stop stop-color="#CCCCCC" stop-opacity="0.6"/>
            <stop offset="1" stop-color="#DFDFDF" stop-opacity="0"/>
        </linearGradient>
        <linearGradient id="paint7_linear_2290_579679" x1="101.462" y1="151.097" x2="183.274" y2="142.426"
                        gradientUnits="userSpaceOnUse">
            <stop stop-color="#CBCBCB" stop-opacity="0.4"/>
            <stop offset="0.25" stop-color="#CCCCCC"/>
            <stop offset="1" stop-color="#BABABA" stop-opacity="0.5"/>
        </linearGradient>
        <linearGradient id="paint8_linear_2290_579679" x1="81.34" y1="111.54" x2="165.43" y2="111.54"
                        gradientUnits="userSpaceOnUse">
            <stop stop-color="#CCCCCC"/>
            <stop offset="1" stop-color="#F4F4F4"/>
        </linearGradient>
        <linearGradient id="paint9_linear_2290_579679" x1="123.58" y1="10.8797" x2="123.24" y2="94.8897"
                        gradientUnits="userSpaceOnUse">
            <stop offset="0.41" stop-color="white"/>
            <stop offset="0.63" stop-color="#94C4FF"/>
        </linearGradient>
        <linearGradient id="paint10_linear_2290_579679" x1="93.92" y1="84.8798" x2="150.98" y2="84.8798"
                        gradientUnits="userSpaceOnUse">
            <stop offset="0.69" stop-color="#DFDFDF" stop-opacity="0.7"/>
            <stop offset="1" stop-color="#F4F4F4" stop-opacity="0"/>
        </linearGradient>
        <linearGradient id="paint11_linear_2290_579679" x1="2762.19" y1="603.964" x2="3569.32" y2="603.964"
                        gradientUnits="userSpaceOnUse">
            <stop offset="0.69" stop-color="#DFDFDF" stop-opacity="0.7"/>
            <stop offset="1" stop-color="#F4F4F4" stop-opacity="0"/>
        </linearGradient>
        <linearGradient id="paint12_linear_2290_579679" x1="5452.99" y1="722.653" x2="8708.84" y2="722.653"
                        gradientUnits="userSpaceOnUse">
            <stop offset="0.69" stop-color="#DFDFDF" stop-opacity="0.7"/>
            <stop offset="1" stop-color="#F4F4F4" stop-opacity="0"/>
        </linearGradient>
        <linearGradient id="paint13_linear_2290_579679" x1="2762.19" y1="787.256" x2="3569.32" y2="787.256"
                        gradientUnits="userSpaceOnUse">
            <stop offset="0.69" stop-color="#DFDFDF" stop-opacity="0.7"/>
            <stop offset="1" stop-color="#F4F4F4" stop-opacity="0"/>
        </linearGradient>
        <linearGradient id="paint14_linear_2290_579679" x1="4939.72" y1="5315.31" x2="6053.94" y2="5315.31"
                        gradientUnits="userSpaceOnUse">
            <stop offset="0.14" stop-color="#E6E6E6" stop-opacity="0.5"/>
            <stop offset="1" stop-color="#F2F6FA" stop-opacity="0"/>
        </linearGradient>
        <linearGradient id="paint15_linear_2290_579679" x1="65.35" y1="116.51" x2="77.22" y2="116.51"
                        gradientUnits="userSpaceOnUse">
            <stop offset="0.21" stop-color="#FF9084"/>
            <stop offset="0.83" stop-color="#FFC8AE"/>
        </linearGradient>
        <linearGradient id="paint16_linear_2290_579679" x1="1466.19" y1="4046.6" x2="1908.14" y2="4046.6"
                        gradientUnits="userSpaceOnUse">
            <stop offset="0.21" stop-color="#FF9084"/>
            <stop offset="0.83" stop-color="#FFC8AE"/>
        </linearGradient>
        <linearGradient id="paint17_linear_2290_579679" x1="1093.26" y1="1646.43" x2="1273.76" y2="1646.43"
                        gradientUnits="userSpaceOnUse">
            <stop offset="0.21" stop-color="#FF9084"/>
            <stop offset="0.83" stop-color="#FFC8AE"/>
        </linearGradient>
    </defs>
</svg>
